<svg width="60" height="13" viewBox="0 0 60 13" fill="none" xmlns="http://www.w3.org/2000/svg">
<path d="M6.20672 9.44075L8.5711 10.9385C8.87335 11.1298 9.24835 10.8451 9.15872 10.4923L8.47585 7.80538C8.45656 7.73054 8.45878 7.65177 8.48227 7.57813C8.50575 7.5045 8.54954 7.43899 8.6086 7.38913L10.7288 5.62475C11.0071 5.393 10.8638 4.93063 10.5057 4.90738L7.7371 4.72738C7.66255 4.72209 7.59105 4.69574 7.5309 4.65139C7.47075 4.60704 7.42444 4.54652 7.39735 4.47688L6.3646 1.87663C6.33648 1.80273 6.28656 1.73913 6.22146 1.69425C6.15636 1.64937 6.07916 1.62534 6.0001 1.62534C5.92103 1.62534 5.84383 1.64937 5.77873 1.69425C5.71364 1.73913 5.66372 1.80273 5.6356 1.87663L4.60285 4.47688C4.57581 4.54659 4.52952 4.60719 4.46937 4.65161C4.40922 4.69603 4.33768 4.72243 4.2631 4.72775L1.49447 4.90775C1.13672 4.93063 0.992723 5.393 1.27135 5.62475L3.3916 7.3895C3.45059 7.43933 3.49434 7.50478 3.51782 7.57834C3.5413 7.6519 3.54356 7.73059 3.52435 7.80538L2.89135 10.2973C2.78372 10.7206 3.2341 11.0623 3.59635 10.8324L5.79385 9.44075C5.85561 9.40149 5.92728 9.38063 6.00047 9.38063C6.07366 9.38063 6.14533 9.40149 6.2071 9.44075H6.20672Z" fill="#FF8A00"/>
<path d="M18.2067 9.44075L20.5711 10.9385C20.8733 11.1298 21.2483 10.8451 21.1587 10.4923L20.4758 7.80538C20.4566 7.73054 20.4588 7.65177 20.4823 7.57813C20.5057 7.5045 20.5495 7.43899 20.6086 7.38913L22.7288 5.62475C23.0071 5.393 22.8638 4.93063 22.5057 4.90738L19.7371 4.72738C19.6626 4.72209 19.591 4.69574 19.5309 4.65139C19.4708 4.60704 19.4244 4.54652 19.3973 4.47688L18.3646 1.87663C18.3365 1.80273 18.2866 1.73913 18.2215 1.69425C18.1564 1.64937 18.0792 1.62534 18.0001 1.62534C17.921 1.62534 17.8438 1.64937 17.7787 1.69425C17.7136 1.73913 17.6637 1.80273 17.6356 1.87663L16.6028 4.47688C16.5758 4.54659 16.5295 4.60719 16.4694 4.65161C16.4092 4.69603 16.3377 4.72243 16.2631 4.72775L13.4945 4.90775C13.1367 4.93063 12.9927 5.393 13.2713 5.62475L15.3916 7.3895C15.4506 7.43933 15.4943 7.50478 15.5178 7.57834C15.5413 7.6519 15.5436 7.73059 15.5243 7.80538L14.8913 10.2973C14.7837 10.7206 15.2341 11.0623 15.5963 10.8324L17.7938 9.44075C17.8556 9.40149 17.9273 9.38063 18.0005 9.38063C18.0737 9.38063 18.1453 9.40149 18.2071 9.44075H18.2067Z" fill="#FF8A00"/>
<path d="M30.2067 9.44075L32.5711 10.9385C32.8733 11.1298 33.2483 10.8451 33.1587 10.4923L32.4758 7.80538C32.4566 7.73054 32.4588 7.65177 32.4823 7.57813C32.5057 7.5045 32.5495 7.43899 32.6086 7.38913L34.7288 5.62475C35.0071 5.393 34.8638 4.93063 34.5057 4.90738L31.7371 4.72738C31.6626 4.72209 31.591 4.69574 31.5309 4.65139C31.4708 4.60704 31.4244 4.54652 31.3973 4.47688L30.3646 1.87663C30.3365 1.80273 30.2866 1.73913 30.2215 1.69425C30.1564 1.64937 30.0792 1.62534 30.0001 1.62534C29.921 1.62534 29.8438 1.64937 29.7787 1.69425C29.7136 1.73913 29.6637 1.80273 29.6356 1.87663L28.6028 4.47688C28.5758 4.54659 28.5295 4.60719 28.4694 4.65161C28.4092 4.69603 28.3377 4.72243 28.2631 4.72775L25.4945 4.90775C25.1367 4.93063 24.9927 5.393 25.2713 5.62475L27.3916 7.3895C27.4506 7.43933 27.4943 7.50478 27.5178 7.57834C27.5413 7.6519 27.5436 7.73059 27.5243 7.80538L26.8913 10.2973C26.7837 10.7206 27.2341 11.0623 27.5963 10.8324L29.7938 9.44075C29.8556 9.40149 29.9273 9.38063 30.0005 9.38063C30.0737 9.38063 30.1453 9.40149 30.2071 9.44075H30.2067Z" fill="#FF8A00"/>
<path d="M42.2067 9.44075L44.5711 10.9385C44.8733 11.1298 45.2483 10.8451 45.1587 10.4923L44.4758 7.80538C44.4566 7.73054 44.4588 7.65177 44.4823 7.57813C44.5057 7.5045 44.5495 7.43899 44.6086 7.38913L46.7288 5.62475C47.0071 5.393 46.8638 4.93063 46.5057 4.90738L43.7371 4.72738C43.6626 4.72209 43.591 4.69574 43.5309 4.65139C43.4708 4.60704 43.4244 4.54652 43.3973 4.47688L42.3646 1.87663C42.3365 1.80273 42.2866 1.73913 42.2215 1.69425C42.1564 1.64937 42.0792 1.62534 42.0001 1.62534C41.921 1.62534 41.8438 1.64937 41.7787 1.69425C41.7136 1.73913 41.6637 1.80273 41.6356 1.87663L40.6028 4.47688C40.5758 4.54659 40.5295 4.60719 40.4694 4.65161C40.4092 4.69603 40.3377 4.72243 40.2631 4.72775L37.4945 4.90775C37.1367 4.93063 36.9927 5.393 37.2713 5.62475L39.3916 7.3895C39.4506 7.43933 39.4943 7.50478 39.5178 7.57834C39.5413 7.6519 39.5436 7.73059 39.5243 7.80538L38.8913 10.2973C38.7837 10.7206 39.2341 11.0623 39.5963 10.8324L41.7938 9.44075C41.8556 9.40149 41.9273 9.38063 42.0005 9.38063C42.0737 9.38063 42.1453 9.40149 42.2071 9.44075H42.2067Z" fill="#FF8A00"/>
<path d="M54.2067 9.44075L56.5711 10.9385C56.8733 11.1298 57.2483 10.8451 57.1587 10.4923L56.4758 7.80538C56.4566 7.73054 56.4588 7.65177 56.4823 7.57813C56.5057 7.5045 56.5495 7.43899 56.6086 7.38913L58.7288 5.62475C59.0071 5.393 58.8638 4.93063 58.5057 4.90738L55.7371 4.72738C55.6626 4.72209 55.591 4.69574 55.5309 4.65139C55.4708 4.60704 55.4244 4.54652 55.3973 4.47688L54.3646 1.87663C54.3365 1.80273 54.2866 1.73913 54.2215 1.69425C54.1564 1.64937 54.0792 1.62534 54.0001 1.62534C53.921 1.62534 53.8438 1.64937 53.7787 1.69425C53.7136 1.73913 53.6637 1.80273 53.6356 1.87663L52.6028 4.47688C52.5758 4.54659 52.5295 4.60719 52.4694 4.65161C52.4092 4.69603 52.3377 4.72243 52.2631 4.72775L49.4945 4.90775C49.1367 4.93063 48.9927 5.393 49.2713 5.62475L51.3916 7.3895C51.4506 7.43933 51.4943 7.50478 51.5178 7.57834C51.5413 7.6519 51.5436 7.73059 51.5243 7.80538L50.8913 10.2973C50.7837 10.7206 51.2341 11.0623 51.5963 10.8324L53.7938 9.44075C53.8556 9.40149 53.9273 9.38063 54.0005 9.38063C54.0737 9.38063 54.1453 9.40149 54.2071 9.44075H54.2067Z" fill="#CCCCCC"/>
</svg>
